#!OML:ASF E:\Steps\Project 1\Capture day 1\Session 2\Subject.ASF
:FULLY-SPECIFIED
:DEGREES
470
root 12.9923 15.6929 9.71123 -143.517 9.20649 180.885
lowerback -10.8988 -1.67507 -5.76776
upperback -1.78378 -1.35123 -0.392008
thorax 4.37596 -0.671558 2.64777
lowerneck -8.48698 -3.42732 -7.8422
upperneck 19.0713 -5.5031 15.8503
head 7.91199 -1.3897 6.19702
rclavicle 3.81667e-014 -2.3059e-014
rhumerus -32.4302 -10.2869 -86.5619
rradius 31.6836
rwrist -5.85015
rhand -6.165 -46.127
rfingers 7.12502
rthumb 19.6737 -75.1515
lclavicle 3.81667e-014 -2.3059e-014
lhumerus -17.7992 -23.9186 85.505
lradius 29.7862
lwrist 4.1409
lhand -24.858 -22.4096
lfingers 7.12502
lthumb 1.64871 7.56381
rfemur -65.2343 18.2728 2.81023
rtibia 42.0549
rfoot -26.6951 -12.0355
rtoes -31.8109
lfemur -60.4448 -9.27378 -13.2651
ltibia 46.9585
lfoot -22.3377 13.054
ltoes -28.366
471
root 12.9974 15.794 9.68321 -143.435 8.74529 180.814
lowerback -11.5961 -1.59779 -5.48155
upperback -1.99406 -1.22005 -0.351601
thorax 4.52526 -0.591484 2.5411
lowerneck -8.61036 -3.53523 -7.75335
upperneck 19.1451 -5.64724 15.7464
head 7.97419 -1.45009 6.13313
rclavicle -5.1684e-015 -1.03368e-014
rhumerus -32.4691 -10.7954 -86.4665
rradius 31.3951
rwrist -5.461
rhand -6.40077 -46.0779
rfingers 7.12502
rthumb 19.4471 -75.1254
lclavicle -5.1684e-015 -1.03368e-014
lhumerus -18.3811 -23.7527 85.6621
lradius 29.1751
lwrist 4.00792
lhand -24.5186 -22.1531
lfingers 7.12502
lthumb 1.97651 7.81746
rfemur -64.2641 18.7518 2.47144
rtibia 40.0851
rfoot -26.5312 -10.7653
rtoes -32.9564
lfemur -59.3543 -9.67612 -13.0254
ltibia 44.7838
lfoot -21.741 12.9283
ltoes -27.6719
472
root 13.0009 15.8867 9.65901 -143.309 8.28155 180.782
lowerback -12.3241 -1.57223 -5.17817
upperback -2.24612 -1.16044 -0.255562
thorax 4.65396 -0.543117 2.47362
lowerneck -8.57752 -3.58775 -7.77064
upperneck 19.2215 -5.6984 15.6423
head 7.99754 -1.47965 6.09768
rclavicle -7.95139e-016 -2.38542e-015
rhumerus -32.6403 -11.0039 -86.4169
rradius 31.228
rwrist -4.91101
rhand -6.74697 -46.4045
rfingers 7.12502
rthumb 19.1142 -75.4852
lclavicle -7.95139e-016 -2.38542e-015
lhumerus -18.9413 -23.2375 85.8587
lradius 28.536
lwrist 3.63589
lhand -24.2748 -22.0482
lfingers 7.12502
lthumb 2.21192 7.92007
rfemur -63.3262 19.126 2.261
rtibia 38.0173
rfoot -26.1503 -9.3978
rtoes -34.1484
lfemur -58.3538 -9.96786 -12.8098
ltibia 42.6136
lfoot -20.8329 13.1667
ltoes -29.7444
473
root 13.0034 15.9778 9.63365 -143.418 7.73866 180.598
lowerback -12.8545 -1.7112 -5.00534
upperback -2.5061 -1.31857 -0.11573
thorax 4.68533 -0.601284 2.49239
lowerneck -8.18349 -3.54261 -7.92874
upperneck 19.2963 -5.59057 15.539
head 7.93426 -1.45485 6.10448
rclavicle -2.78299e-014 -4.77083e-015
rhumerus -32.8408 -11.0091 -86.3187
rradius 30.868
rwrist -4.08022
rhand -6.95289 -46.9961
rfingers 7.12502
rthumb 18.9161 -76.0963
lclavicle -2.78299e-014 -4.77083e-015
lhumerus -19.7179 -22.4481 86.0555
lradius 27.92
lwrist 3.13345
lhand -24.1333 -21.9544
lfingers 7.12502
lthumb 2.34863 8.01241
rfemur -62.0599 19.3868 2.13508
rtibia 36.0579
rfoot -25.7004 -8.18516
rtoes -35.4587
lfemur -57.076 -10.2605 -12.8927
ltibia 40.3817
lfoot -19.9751 13.1195
ltoes -31.6978
474
root 13.0053 16.0567 9.6014 -143.453 7.44071 180.42
lowerback -13.5478 -1.74554 -4.93002
upperback -2.61769 -1.31266 -0.079866
thorax 4.94793 -0.589794 2.48023
lowerneck -8.32757 -3.58109 -7.82782
upperneck 19.3789 -5.63323 15.3732
head 7.98703 -1.47369 6.02633
rclavicle -7.95139e-015 -1.66979e-014
rhumerus -32.5972 -11.5164 -86.1769
rradius 30.2202
rwrist -2.98939
rhand -7.21056 -47.554
rfingers 7.12502
rthumb 18.6683 -76.6782
lclavicle -7.95139e-015 -1.66979e-014
lhumerus -20.1089 -21.9475 86.005
lradius 27.3739
lwrist 3.11371
lhand -23.7853 -22.0513
lfingers 7.12502
lthumb 2.68471 7.91156
rfemur -60.9986 19.6273 1.97783
rtibia 34.3493
rfoot -25.1877 -7.03864
rtoes -36.2456
lfemur -55.827 -10.4132 -13.0801
ltibia 38.1556
lfoot -19.3807 12.8653
ltoes -31.378
475
root 13.0087 16.1323 9.57193 -143.554 7.07128 180.174
lowerback -14.197 -1.74281 -4.91358
upperback -2.63114 -1.25542 -0.0869751
thorax 5.28528 -0.560549 2.46552
lowerneck -8.54721 -3.66093 -7.64108
upperneck 19.4181 -5.74738 15.2306
head 8.04763 -1.51691 5.93197
rclavicle 8.94531e-015 4.77083e-015
rhumerus -32.3136 -12.2067 -85.9946
rradius 29.7079
rwrist -1.99565
rhand -7.27736 -48.4472
rfingers 7.12502
rthumb 18.604 -77.5775
lclavicle 8.94531e-015 4.77083e-015
lhumerus -20.3897 -21.5492 85.9383
lradius 26.9261
lwrist 2.92475
lhand -23.6575 -22.1187
lfingers 7.12502
lthumb 2.80811 7.84259
rfemur -59.8369 19.761 1.87881
rtibia 32.6239
rfoot -24.4259 -6.32117
rtoes -36.8075
lfemur -54.6311 -10.6195 -13.3117
ltibia 36.0785
lfoot -18.6526 12.7192
ltoes -32.11
